<?xml version="1.0" standalone="no"?>
<!DOCTYPE svg PUBLIC "-//W3C//DTD SVG 20010904//EN"
 "http://www.w3.org/TR/2001/REC-SVG-20010904/DTD/svg10.dtd">
<svg version="1.0" xmlns="http://www.w3.org/2000/svg"
 width="512.000000pt" height="512.000000pt" viewBox="0 0 512.000000 512.000000"
 preserveAspectRatio="xMidYMid meet">

<g transform="translate(0.000000,512.000000) scale(0.100000,-0.100000)"
fill="#000000" stroke="none">
<path d="M2459 5092 c-39 -20 -62 -41 -84 -77 -29 -47 -30 -52 -34 -194 l-3
-146 -87 -17 c-633 -124 -1117 -668 -1181 -1327 -5 -53 -10 -267 -10 -476 0
-410 -6 -480 -55 -650 -38 -132 -97 -259 -174 -377 -77 -116 -139 -189 -258
-302 -124 -117 -169 -230 -143 -360 32 -162 145 -275 305 -306 44 -8 547 -10
1860 -8 l1800 3 57 23 c81 33 160 108 200 190 30 60 33 75 33 157 0 136 -26
184 -196 355 -226 227 -345 443 -410 738 -20 88 -22 141 -29 587 -8 533 -11
563 -75 761 -163 498 -598 887 -1114 993 l-86 18 -5 144 c-6 162 -17 199 -77
248 -69 57 -153 65 -234 23z"/>
<path d="M1065 4945 c-51 -18 -194 -165 -313 -324 -329 -436 -513 -946 -538
-1486 -8 -164 1 -208 52 -265 96 -106 267 -88 340 35 24 42 27 59 35 205 17
329 85 600 219 875 99 204 205 360 367 541 108 120 124 149 124 217 0 65 -14
103 -54 146 -62 65 -147 86 -232 56z"/>
<path d="M3896 4945 c-79 -28 -135 -110 -136 -198 0 -69 19 -105 101 -194 388
-418 583 -884 615 -1473 7 -135 19 -173 71 -222 104 -99 267 -67 335 67 19 37
20 51 15 210 -18 478 -167 941 -433 1342 -139 209 -333 429 -409 464 -47 22
-105 23 -159 4z"/>
<path d="M1786 588 c24 -87 99 -229 158 -300 99 -119 261 -222 416 -264 99
-27 301 -25 403 4 269 77 476 276 556 536 11 37 21 70 21 72 0 2 -353 4 -784
4 l-785 0 15 -52z"/>
</g>
</svg>
