<?xml version="1.0" standalone="no"?>
<!DOCTYPE svg PUBLIC "-//W3C//DTD SVG 20010904//EN"
 "http://www.w3.org/TR/2001/REC-SVG-20010904/DTD/svg10.dtd">
<svg version="1.0" xmlns="http://www.w3.org/2000/svg"
 width="512.000000pt" height="512.000000pt" viewBox="0 0 512.000000 512.000000"
 preserveAspectRatio="xMidYMid meet">

<g transform="translate(0.000000,512.000000) scale(0.100000,-0.100000)"
fill="#000000" stroke="none">
<path d="M4420 4428 c-28 -7 -282 -257 -1236 -1209 l-1201 -1200 -613 620
c-422 427 -627 627 -655 641 -49 24 -112 26 -163 5 -50 -21 -507 -475 -533
-530 -24 -51 -24 -109 0 -160 25 -57 1830 -1871 1886 -1896 51 -24 109 -24
160 0 57 27 3018 2991 3040 3043 20 50 19 104 -4 153 -26 55 -483 509 -533
530 -42 17 -95 18 -148 3z"/>
</g>
</svg>
