<?xml version="1.0" standalone="no"?>
<!DOCTYPE svg PUBLIC "-//W3C//DTD SVG 20010904//EN"
 "http://www.w3.org/TR/2001/REC-SVG-20010904/DTD/svg10.dtd">
<svg version="1.0" xmlns="http://www.w3.org/2000/svg"
 width="512.000000pt" height="512.000000pt" viewBox="0 0 512.000000 512.000000"
 preserveAspectRatio="xMidYMid meet">

<g transform="translate(0.000000,512.000000) scale(0.100000,-0.100000)"
fill="#000000" stroke="none">
<path d="M2479 5097 c-29 -16 -52 -38 -69 -68 -24 -43 -25 -50 -28 -278 -5
-277 1 -348 31 -392 76 -111 219 -111 295 1 22 32 22 38 22 333 l0 300 -25 43
c-28 48 -91 84 -147 84 -19 0 -55 -10 -79 -23z"/>
<path d="M805 4406 c-87 -39 -129 -147 -90 -230 9 -18 106 -123 218 -233 165
-164 210 -203 244 -213 129 -39 252 84 213 213 -10 34 -49 79 -213 244 -110
112 -215 209 -233 218 -39 18 -99 19 -139 1z"/>
<path d="M4174 4404 c-17 -8 -121 -106 -231 -217 -164 -165 -203 -210 -213
-244 -39 -129 84 -252 213 -213 34 10 79 49 244 213 112 110 209 215 218 233
66 140 -92 297 -231 228z"/>
<path d="M2370 3905 c-292 -41 -560 -175 -771 -387 -378 -378 -497 -941 -306
-1448 129 -345 432 -648 777 -777 509 -192 1068 -73 1449 308 532 532 532
1386 0 1918 -304 304 -724 445 -1149 386z m356 -350 c552 -97 923 -617 829
-1161 -37 -210 -121 -376 -270 -532 -327 -345 -852 -410 -1262 -156 -102 62
-255 215 -317 317 -279 451 -169 1034 254 1347 223 164 499 231 766 185z"/>
<path d="M83 2705 c-47 -28 -83 -91 -83 -145 0 -54 36 -117 84 -145 l43 -25
300 0 c295 0 301 0 333 23 112 76 112 218 0 295 -32 22 -38 22 -334 22 l-301
0 -42 -25z"/>
<path d="M4360 2708 c-66 -45 -96 -114 -80 -185 11 -45 36 -81 80 -110 32 -23
38 -23 334 -23 293 0 302 1 340 23 46 26 86 93 86 145 0 56 -36 119 -84 147
l-43 25 -300 0 c-295 0 -301 0 -333 -22z"/>
<path d="M1155 1381 c-49 -23 -429 -403 -445 -444 -53 -142 99 -286 234 -222
18 9 123 106 233 218 164 165 203 210 213 244 24 80 -13 162 -90 201 -54 27
-92 28 -145 3z"/>
<path d="M3820 1378 c-77 -39 -114 -121 -90 -201 10 -34 49 -79 213 -244 110
-112 215 -209 233 -218 135 -64 287 80 233 222 -15 41 -396 421 -444 444 -53
25 -91 24 -145 -3z"/>
<path d="M2521 840 c-76 -18 -126 -81 -136 -173 -4 -35 -5 -169 -3 -298 3
-218 5 -237 25 -275 62 -118 232 -123 298 -10 l25 43 0 297 c0 201 -4 304 -11
319 -39 75 -119 114 -198 97z"/>
</g>
</svg>
