<?xml version="1.0" standalone="no"?>
<!DOCTYPE svg PUBLIC "-//W3C//DTD SVG 20010904//EN"
 "http://www.w3.org/TR/2001/REC-SVG-20010904/DTD/svg10.dtd">
<svg version="1.0" xmlns="http://www.w3.org/2000/svg"
 width="512.000000pt" height="512.000000pt" viewBox="0 0 512.000000 512.000000"
 preserveAspectRatio="xMidYMid meet">

<g transform="translate(0.000000,512.000000) scale(0.100000,-0.100000)"
fill="#000000" stroke="none">
<path d="M3428 5109 c-254 -30 -512 -134 -728 -295 -111 -82 -2334 -2307
-2407 -2409 -119 -165 -195 -328 -244 -524 -85 -335 -53 -689 92 -999 308
-663 1035 -1011 1741 -833 195 49 358 125 523 244 102 73 2327 2296 2409 2407
129 173 205 334 257 539 85 335 53 689 -92 999 -277 597 -898 945 -1551 871z
m437 -487 c382 -105 664 -391 761 -772 28 -112 26 -394 -4 -502 -32 -118 -77
-217 -144 -320 -52 -79 -137 -169 -577 -611 l-515 -518 -743 743 -743 743 448
448 c246 247 489 487 541 533 157 142 312 224 501 265 114 25 369 20 475 -9z
m-2245 -1662 c34 -24 54 -77 44 -116 -5 -20 -130 -153 -399 -424 -310 -314
-401 -411 -438 -471 -79 -127 -110 -222 -126 -386 -13 -126 -42 -163 -127
-163 -28 0 -44 8 -71 35 l-36 36 6 112 c9 187 61 344 169 509 51 76 128 159
427 462 201 203 384 382 405 397 48 35 104 39 146 9z"/>
</g>
</svg>
