<?xml version="1.0" standalone="no"?>
<!DOCTYPE svg PUBLIC "-//W3C//DTD SVG 20010904//EN"
 "http://www.w3.org/TR/2001/REC-SVG-20010904/DTD/svg10.dtd">
<svg version="1.0" xmlns="http://www.w3.org/2000/svg"
 width="512.000000pt" height="512.000000pt" viewBox="0 0 512.000000 512.000000"
 preserveAspectRatio="xMidYMid meet">

<g transform="translate(0.000000,512.000000) scale(0.100000,-0.100000)"
fill="#000000" stroke="none">
<path d="M900 4880 l0 -150 -450 0 -450 0 0 -2320 0 -2320 2560 0 2560 0 0
2320 0 2320 -450 0 -450 0 0 150 0 150 -150 0 -150 0 0 -150 0 -150 -1360 0
-1360 0 0 150 0 150 -150 0 -150 0 0 -150z m0 -600 l0 -150 150 0 150 0 0 150
0 150 1360 0 1360 0 0 -150 0 -150 150 0 150 0 0 150 0 150 300 0 300 0 0
-300 0 -300 -2260 0 -2260 0 0 300 0 300 300 0 300 0 0 -150z m3920 -2320 l0
-1570 -2260 0 -2260 0 0 1570 0 1570 2260 0 2260 0 0 -1570z"/>
<path d="M797 3123 c-4 -3 -7 -123 -7 -265 l0 -258 265 0 265 0 0 265 0 265
-258 0 c-142 0 -262 -3 -265 -7z"/>
<path d="M1797 3123 c-4 -3 -7 -123 -7 -265 l0 -258 265 0 265 0 0 265 0 265
-258 0 c-142 0 -262 -3 -265 -7z"/>
<path d="M2800 2865 l0 -265 265 0 265 0 -2 263 -3 262 -262 3 -263 2 0 -265z"/>
<path d="M3800 2865 l0 -265 265 0 265 0 -2 263 -3 262 -262 3 -263 2 0 -265z"/>
<path d="M792 1958 l3 -263 263 -3 262 -2 0 265 0 265 -265 0 -265 0 2 -262z"/>
<path d="M1792 1958 l3 -263 263 -3 262 -2 0 265 0 265 -265 0 -265 0 2 -262z"/>
<path d="M2800 1955 l0 -265 263 2 262 3 3 263 2 262 -265 0 -265 0 0 -265z"/>
<path d="M3800 1955 l0 -265 263 2 262 3 3 263 2 262 -265 0 -265 0 0 -265z"/>
<path d="M792 1058 l3 -263 263 -3 262 -2 0 265 0 265 -265 0 -265 0 2 -262z"/>
<path d="M1792 1058 l3 -263 263 -3 262 -2 0 265 0 265 -265 0 -265 0 2 -262z"/>
<path d="M2800 1055 l0 -265 263 2 262 3 3 263 2 262 -265 0 -265 0 0 -265z"/>
<path d="M3800 1055 l0 -265 263 2 262 3 3 263 2 262 -265 0 -265 0 0 -265z"/>
</g>
</svg>
