<?xml version="1.0" standalone="no"?>
<!DOCTYPE svg PUBLIC "-//W3C//DTD SVG 20010904//EN"
 "http://www.w3.org/TR/2001/REC-SVG-20010904/DTD/svg10.dtd">
<svg version="1.0" xmlns="http://www.w3.org/2000/svg"
 width="512.000000pt" height="512.000000pt" viewBox="0 0 512.000000 512.000000"
 preserveAspectRatio="xMidYMid meet">

<g transform="translate(0.000000,512.000000) scale(0.100000,-0.100000)"
fill="#000000" stroke="none">
<path d="M900 4880 l0 -150 -450 0 -450 0 0 -450 0 -450 2560 0 2560 0 0 450
0 450 -450 0 -450 0 0 150 0 150 -150 0 -150 0 0 -150 0 -150 -1360 0 -1360 0
0 150 0 150 -150 0 -150 0 0 -150z m300 -450 l0 -300 -150 0 -150 0 0 300 0
300 150 0 150 0 0 -300z m3020 0 l0 -300 -150 0 -150 0 0 300 0 300 150 0 150
0 0 -300z"/>
<path d="M0 1810 l0 -1720 2560 0 2560 0 0 1720 0 1720 -2560 0 -2560 0 0
-1720z m1320 950 l0 -260 -265 0 -265 0 0 260 0 260 265 0 265 0 0 -260z
m1000 0 l0 -260 -265 0 -265 0 0 260 0 260 265 0 265 0 0 -260z m1010 0 l0
-260 -265 0 -265 0 0 260 0 260 265 0 265 0 0 -260z m1000 0 l0 -260 -265 0
-265 0 0 260 0 260 265 0 265 0 0 -260z m-3010 -905 l0 -265 -262 2 -263 3 -3
263 -2 262 265 0 265 0 0 -265z m1000 0 l0 -265 -262 2 -263 3 -3 263 -2 262
265 0 265 0 0 -265z m1008 3 l-3 -263 -262 -3 -263 -2 0 265 0 265 265 0 265
0 -2 -262z m1000 0 l-3 -263 -262 -3 -263 -2 0 265 0 265 265 0 265 0 -2 -262z
m-3008 -903 l0 -265 -262 2 -263 3 -3 263 -2 262 265 0 265 0 0 -265z m1000 0
l0 -265 -262 2 -263 3 -3 263 -2 262 265 0 265 0 0 -265z m1008 3 l-3 -263
-262 -3 -263 -2 0 265 0 265 265 0 265 0 -2 -262z m1000 0 l-3 -263 -262 -3
-263 -2 0 265 0 265 265 0 265 0 -2 -262z"/>
</g>
</svg>
