<?xml version="1.0" standalone="no"?>
<!DOCTYPE svg PUBLIC "-//W3C//DTD SVG 20010904//EN"
 "http://www.w3.org/TR/2001/REC-SVG-20010904/DTD/svg10.dtd">
<svg version="1.0" xmlns="http://www.w3.org/2000/svg"
 width="512.000000pt" height="512.000000pt" viewBox="0 0 512.000000 512.000000"
 preserveAspectRatio="xMidYMid meet">

<g transform="translate(0.000000,512.000000) scale(0.100000,-0.100000)"
fill="#000000" stroke="none">
<path d="M3428 5109 c-254 -30 -512 -134 -728 -295 -111 -82 -2334 -2307
-2407 -2409 -119 -165 -195 -328 -244 -524 -85 -335 -53 -689 92 -999 308
-663 1035 -1011 1741 -833 195 49 358 125 523 244 102 73 2327 2296 2409 2407
129 173 205 334 257 539 85 335 53 689 -92 999 -277 597 -898 945 -1551 871z
m407 -245 c376 -62 729 -323 907 -670 97 -188 141 -372 141 -589 0 -211 -36
-369 -128 -560 -82 -170 -132 -227 -687 -782 l-523 -523 -905 905 -905 905
510 509 c601 599 660 647 904 741 218 85 436 105 686 64z m-970 -3812 c-556
-553 -612 -601 -790 -687 -191 -92 -349 -128 -560 -128 -348 0 -662 130 -905
373 -243 243 -373 557 -373 905 0 202 35 359 119 544 80 174 113 212 683 784
l536 537 905 -905 905 -906 -520 -517z"/>
<path d="M1474 2951 c-21 -15 -204 -194 -405 -397 -299 -303 -376 -386 -427
-462 -108 -165 -160 -322 -169 -509 l-6 -112 36 -36 c27 -27 43 -35 71 -35 85
0 114 37 127 163 16 164 47 259 126 386 37 60 128 157 438 471 269 271 394
404 399 424 26 106 -97 176 -190 107z"/>
</g>
</svg>
