<?xml version="1.0" standalone="no"?>
<!DOCTYPE svg PUBLIC "-//W3C//DTD SVG 20010904//EN"
 "http://www.w3.org/TR/2001/REC-SVG-20010904/DTD/svg10.dtd">
<svg version="1.0" xmlns="http://www.w3.org/2000/svg"
 width="512.000000pt" height="512.000000pt" viewBox="0 0 512.000000 512.000000"
 preserveAspectRatio="xMidYMid meet">

<g transform="translate(0.000000,512.000000) scale(0.100000,-0.100000)"
fill="#000000" stroke="none">
<path d="M167 5104 c-66 -20 -131 -88 -152 -157 -19 -64 -19 -90 1 -158 15
-53 42 -81 1102 -1141 l1087 -1088 -1087 -1087 c-1060 -1061 -1087 -1089
-1102 -1142 -20 -68 -20 -94 0 -160 28 -96 131 -171 234 -171 20 0 59 7 86 16
45 15 139 106 1136 1103 l1088 1086 1088 -1086 c1038 -1038 1089 -1088 1141
-1104 121 -39 242 12 304 129 30 58 30 155 -2 216 -16 32 -342 364 -1099 1122
l-1077 1078 1077 1078 c740 741 1083 1090 1097 1119 28 56 36 118 22 169 -38
141 -176 220 -317 179 l-59 -17 -1088 -1086 -1087 -1087 -1088 1087 c-1061
1060 -1088 1087 -1141 1102 -66 19 -101 19 -164 0z"/>
</g>
</svg>
